/* XPM */
static char * fa_memory_xpm[] = {
"20 18 3 1",
" 	c None",
".	c #DCD7BA",
"+	c #DDD7BA",
"                    ",
"                    ",
"                    ",
"  ..++++++++++++..  ",
" .................. ",
" ....  ..  ..  .... ",
"  ...  ..  ..  ..+  ",
"  ...  ..  ..  ...  ",
" ....  ..  ..  .... ",
" .................. ",
" .................. ",
"                    ",
" .................. ",
" .................. ",
" ..  ++  ..  ++  .. ",
"                    ",
"                    ",
"                    "};
