/* XPM */
static char * tb_battery_off_xpm[] = {
"18 18 8 1",
" 	c None",
".	c #DCD7BA",
"+	c #DCD7B9",
"@	c #DDD7BA",
"#	c #DCD6BA",
"$	c #DBD7BA",
"%	c #DBD8B9",
"&	c #DDD8BB",
"                  ",
"                  ",
"  .               ",
"   .              ",
"    +             ",
"   .@#  .....@    ",
"  $.  .       .   ",
"  %%   .      .   ",
"  %%    .     %%  ",
"  %%     .    %%  ",
"  %%      .   .   ",
"  $.       .  +   ",
"   .........+     ",
"            .&    ",
"              .   ",
"               .  ",
"                  ",
"                  "};
