/* XPM */
static char * tb_battery_xpm[] = {
"18 18 6 1",
" 	c None",
".	c #DCD7BA",
"+	c #DDD7BA",
"@	c #DBD7BA",
"#	c #DBD8B9",
"$	c #DDD8BA",
"                  ",
"                  ",
"                  ",
"                  ",
"                  ",
"   ..........+    ",
"  @.          .   ",
"  ##          .   ",
"  ##          ##  ",
"  ##          ##  ",
"  ##          .   ",
"  @.          .   ",
"   .........$.    ",
"                  ",
"                  ",
"                  ",
"                  ",
"                  "};
