/* XPM */
static char * tb_charging_xpm[] = {
"18 18 10 1",
" 	c None",
".	c #DCD7BA",
"+	c #DDD7BA",
"@	c #DCD8BA",
"#	c #DCD6B9",
"$	c #DBD8B9",
"%	c #DBD8BA",
"&	c #DDD7BB",
"*	c #DBD7BA",
"=	c #DDD8BA",
"                  ",
"                  ",
"                  ",
"                  ",
"                  ",
"   ...      .+    ",
"  @.    #     .   ",
"  $$    #     .   ",
"  $$   #.%    $$  ",
"  $$   &..    $$  ",
"  $$    ..    .   ",
"  *.    .     .   ",
"   ...     .=.    ",
"                  ",
"                  ",
"                  ",
"                  ",
"                  "};
