/* XPM */
static char * tb_cpu_2_xpm[] = {
"18 18 9 1",
" 	c None",
".	c #DCD7BA",
"+	c #DBD8BA",
"@	c #DCD8BB",
"#	c #DDD8BA",
"$	c #DDD7BB",
"%	c #DCD8BA",
"&	c #DBD8B9",
"*	c #DCD6BB",
"                  ",
"                  ",
"       .  .       ",
"    ..+.++.+..    ",
"   @.        .@   ",
"   #  +$  $+  #   ",
"   % &.$  $.& %   ",
"  .. **    ** ..  ",
"   %          %   ",
"   %          %   ",
"  .. **    ** ..  ",
"   % &.$  $.& %   ",
"   #  +$  $+  #   ",
"   @.        .@   ",
"    ..+.++.+..    ",
"       .  .       ",
"                  ",
"                  "};
