/* XPM */
static char * tb_volume_off_xpm[] = {
"18 18 10 1",
" 	c None",
".	c #DCD7BA",
"+	c #DCD8BA",
"@	c #DDD7BA",
"#	c #DDD8BA",
"$	c #DCD7B9",
"%	c #DED7BC",
"&	c #DCD8BB",
"*	c #DCD7BB",
"=	c #DBD6B9",
"                  ",
"                  ",
"  .               ",
"   .  +.+    @    ",
"    .   #    $.   ",
"     .  $     .   ",
"  $..%.    .   .  ",
"  .    .    .  .  ",
"  #    +$   .  .  ",
"  #     &.  .  .  ",
"  .     # .    .  ",
"  *..   #  $   .  ",
"     .  #  =.     ",
"      + #    .    ",
"      ...    .@   ",
"               .  ",
"                  ",
"                  "};
