/* XPM */
static char * tb_volume_xpm[] = {
"18 18 9 1",
" 	c None",
".	c #DCD7BA",
"+	c #DCD8BA",
"@	c #DDD7BA",
"#	c #DDD8BA",
"$	c #DCD7B9",
"%	c #DCD6BA",
"&	c #DBD7BA",
"*	c #DCD7BB",
"                  ",
"                  ",
"                  ",
"      ..+    @    ",
"      + #    $.   ",
"     .  #     .   ",
"  $..   #  +   .  ",
"  .     #   .  .  ",
"  #     #   .  %  ",
"  #     #   .  &  ",
"  .     #   @  .  ",
"  *..   #  +   .  ",
"     .  #     @   ",
"      + #    ++   ",
"      ...    @    ",
"                  ",
"                  ",
"                  "};
